<?xml version="1.0" encoding="utf-8"?>
<!-- Generator: Adobe Illustrator 27.5.0, SVG Export Plug-In . SVG Version: 6.00 Build 0)  -->
<svg version="1.1" id="Layer_1" xmlns="http://www.w3.org/2000/svg" xmlns:xlink="http://www.w3.org/1999/xlink" x="0px" y="0px"
	 viewBox="0 0 255.837 110.153" style="enable-background:new 0 0 255.837 110.153;" xml:space="preserve">
<g>
	<g>
		<g>
			<path style="fill:#1568B3;" d="M232.491,7.683l-6.318-2.604c-0.012-0.002-0.027-0.002-0.041-0.002
				c-1.512-0.141-2.899-0.553-4.275,0.473c-0.992,0.74-1.617,1.863-2.424,2.752c-5.998,7.688-10.85,13.858-14.709,18.742
				c-0.924,1.164-19.432,10.529-20.246,11.553c-6.744,8.507,7.787,5.646,7.453,6.244c-1.094,1.941,29.568,0.472,36.238,1.915
				l5.461-35.331C233.489,10.094,233.165,8.831,232.491,7.683z"/>
			<g>
				<path style="fill:#CD202C;" d="M227.089,6.033c0.014,0,0.027,0,0.041,0.002l5.717,2.358c-0.107-0.24-0.221-0.479-0.355-0.71
					l-6.318-2.604c-0.012-0.002-0.027-0.002-0.041-0.002c-0.199-0.019-0.399-0.043-0.596-0.066
					C226.065,5.543,226.591,5.984,227.089,6.033z"/>
				<path style="opacity:0.7;fill:#EFEFF0;" d="M185.435,39.553c0.814-1.024,19.322-10.384,20.246-11.555
					c3.857-4.881,8.713-11.053,14.709-18.741c0.422-0.463,0.695-1.908,1.004-3.288c-0.736,0.707-1.293,1.596-1.961,2.332
					c-5.998,7.688-10.85,13.858-14.709,18.742c-0.924,1.164-19.432,10.529-20.246,11.553c-2.447,3.091-2.086,4.678-0.656,5.478
					C183.386,43.137,183.722,41.711,185.435,39.553z"/>
			</g>
			<path style="fill:#1568B3;" d="M232.491,7.683l-6.318-2.604c-0.012-0.002-0.027-0.002-0.041-0.002
				c-1.307-0.123-2.52-0.441-3.711,0.135c0.391,0.027,0.787,0.078,1.201,0.178c2.623,0.615,7.604,1.713,7.166,5.338
				c-0.777,6.39-2.674,12.801-4.059,19.089c-1.197,5.46-2.23,10.977-3.412,16.443c2.082,0.106,3.781,0.263,4.852,0.496l5.461-35.331
				C233.489,10.094,233.165,8.831,232.491,7.683z"/>
		</g>
		<path style="fill:#EFEFF0;" d="M16.859,56.144C41.075,34.777,46.94,36.168,67.663,36.713c20.724,0.54,79.803,3.447,101.647,4.148
			c21.859,0.696,44.723,2.25,46.826,2.459c0,0,7.484,1.293,17.277,4.342c0,0,4.258,1.151,6.141,2.115
			c1.773,0.904,0.777,5.801-2.004,7.949c-0.65,0.502-8.063,5.072-8.063,5.072s-3.717,2.787-12.379,5.604
			c-7.451,2.427-87.269,17.447-170.459,15.051C22.926,82.772,5.96,71.533,5.978,65.86C6,60.428,16.859,56.144,16.859,56.144z"/>
		<path style="fill:#1568B3;" d="M46.649,83.454c8.955,0.259,17.871,0.313,26.66,0.206c7.184-1.051,14.248-2.806,21.086-5.32
			c10.011-3.684,19.709-8.182,29.785-11.698c11.672-4.069,23.891-6.594,36.02-8.881c12.113-2.281,24.326-4.042,36.584-5.329
			c12.326-1.299,25.041-2.196,37.371-0.545c2.045,0.273,4.133,0.5,6.209,0.782c0.072-0.508,0.092-0.988,0.033-1.409
			c-0.195-0.072-0.387-0.15-0.582-0.219c-22.514-7.893-47.232-7.361-70.709-5.412c-25.09,2.082-50.03,6.7-74.492,12.586
			C72.711,63.488,50.46,70.167,27.721,70.021c-4.883-0.032-17.088-0.234-21.687-4.79c-0.033,0.207-0.054,0.419-0.057,0.63
			C5.96,71.533,22.926,82.772,46.649,83.454z"/>
		<g>
			<g>
				<path style="fill:#494E53;" d="M52.379,53.432c1.126-2.013,1.9-4.16,2.6-6.341c0.158-1.081-0.011-2.092-1.004-2.642
					c-1.975-0.137-4.167-0.258-6.572-0.354c-0.684-0.033-1.361-0.056-1.971-0.074L36.04,56.219c3.234,0.402,6.504,0.657,9.524,0.657
					C48.768,56.847,50.69,56.451,52.379,53.432z"/>
				<path style="fill:#494E53;" d="M19.271,54.382c0,0,8.79-8.207,11.594-9.404c0.672-0.302,3.04-1.192,13.359-1.101l-9.092,12.141
					C30.696,55.596,24.357,55.111,19.271,54.382z"/>
			</g>
		</g>
		<g style="opacity:0.5;">
			<g>
				<path style="fill:#494E53;" d="M53.871,50.237c0.409-1.033,0.769-2.085,1.108-3.146c0.158-1.081-0.011-2.092-1.004-2.642
					c-1.975-0.137-4.167-0.258-6.572-0.354c-0.684-0.033-1.361-0.056-1.971-0.074l-4.03,5.234
					C45.568,49.438,49.721,49.806,53.871,50.237z"/>
				<path style="fill:#494E53;" d="M26.761,50.144c3.205-0.978,6.536-1.036,9.868-1.018c1.203,0.006,2.403,0.038,3.604,0.08
					l3.991-5.329c-10.319-0.092-12.688,0.799-13.359,1.101c-2.024,0.863-7.157,5.374-9.861,7.818
					C22.858,51.759,24.746,50.757,26.761,50.144z"/>
			</g>
		</g>
		<path style="fill:#A6A7AA;" d="M79.032,68.069c-0.403,0-0.674-0.051-0.686-0.052l-6.986-0.233
			c-3.163-1.149-2.861-5.06-2.857-5.099c0.009-0.461,0.273-11.59,0.738-14.398c0.392-2.352,2.316-2.607,3.126-2.607
			c0.245,0,0.398,0.022,0.398,0.022l4.162,0.212l4.233,0.166l0.046-0.004c0.452,0,0.842,0.173,1.158,0.509
			c1.133,1.209,0.958,4.192,0.948,4.321c-0.004,0.434-0.102,10.931-0.745,14.255C82.063,67.787,79.927,68.069,79.032,68.069z
			 M71.462,67.406l6.928,0.225c0.031,0.003,0.282,0.052,0.642,0.052c0.991,0,2.719-0.34,3.152-2.594
			c0.639-3.292,0.739-14.088,0.74-14.195c0.001-0.042,0.174-2.956-0.846-4.041c-0.242-0.258-0.527-0.385-0.872-0.385l-0.06,0.001
			l-4.236-0.164l-4.183-0.214c-0.024-0.003-0.156-0.02-0.361-0.02c-0.882,0-2.413,0.298-2.741,2.28
			c-0.462,2.782-0.731,14.239-0.734,14.355C68.887,62.755,68.614,66.348,71.462,67.406z"/>
		<g>
			<g>
				<path style="fill:#A6A7AA;" d="M95.324,54.821c-0.104,0-0.171-0.012-0.171-0.012l-1.852,0.006l-0.035-0.013
					c-0.788-0.258-0.951-1.103-0.931-1.518c0-0.11-0.029-3.077,0.072-3.841c0.087-0.649,0.586-0.88,1.024-0.88
					c0.058,0,0.095,0.005,0.095,0.005l2.211,0.023c0.001,0,0.005,0,0.005,0c0.19,0,0.339,0.065,0.458,0.187
					c0.354,0.363,0.339,1.176,0.335,1.268c0.004,0.106,0.071,2.91-0.075,3.815C96.367,54.461,95.942,54.821,95.324,54.821z"/>
				<path style="fill:#2A4360;" d="M95.217,54.465c-0.092,0-0.151-0.011-0.151-0.011l-1.624,0.004l-0.031-0.01
					c-0.69-0.229-0.837-0.971-0.816-1.334c-0.003-0.097-0.027-2.702,0.062-3.37c0.074-0.571,0.514-0.774,0.901-0.774
					c0.05,0,0.081,0.003,0.081,0.003l1.942,0.021c0.001,0,0.002,0,0.002,0c0.17,0,0.3,0.06,0.404,0.165
					c0.313,0.318,0.299,1.032,0.296,1.112c0.003,0.093,0.06,2.555-0.066,3.351C96.129,54.147,95.758,54.465,95.217,54.465z"/>
				<path style="fill:#436389;" d="M93.094,51.133h2.578c-0.003-0.256-0.008-0.428-0.008-0.449c0.002-0.082,0.01-0.788-0.211-1.104
					c-0.072-0.105-0.166-0.163-0.283-0.163h-0.003l-1.376-0.021c0,0-0.021-0.006-0.059-0.006c-0.273,0-0.585,0.204-0.639,0.77
					c-0.018,0.196-0.029,0.565-0.035,0.982C93.07,51.142,93.079,51.133,93.094,51.133z"/>
			</g>
			<g>
				<path style="fill:#A6A7AA;" d="M101.772,54.821c-0.105,0-0.172-0.012-0.172-0.012l-1.849,0.006l-0.038-0.013
					c-0.786-0.258-0.951-1.103-0.928-1.518c-0.003-0.11-0.032-3.077,0.069-3.841c0.087-0.649,0.587-0.88,1.025-0.88
					c0.06,0,0.094,0.005,0.094,0.005l2.212,0.023c0.002,0,0.004,0,0.004,0c0.19,0,0.34,0.065,0.459,0.187
					c0.354,0.363,0.339,1.176,0.337,1.268c0.002,0.106,0.069,2.91-0.076,3.815C102.814,54.461,102.389,54.821,101.772,54.821z"/>
				<path style="fill:#2A4360;" d="M101.665,54.465c-0.092,0-0.15-0.011-0.15-0.011l-1.624,0.004l-0.031-0.01
					c-0.691-0.229-0.837-0.971-0.817-1.334c0-0.097-0.026-2.702,0.061-3.37c0.076-0.571,0.517-0.774,0.902-0.774
					c0.051,0,0.082,0.003,0.082,0.003l1.941,0.021c0.001,0,0.002,0,0.002,0c0.17,0,0.301,0.06,0.404,0.165
					c0.313,0.318,0.298,1.032,0.296,1.112c0.002,0.093,0.06,2.555-0.066,3.351C102.58,54.147,102.206,54.465,101.665,54.465z"/>
				<path style="fill:#436389;" d="M99.542,51.133h2.577c-0.002-0.256-0.005-0.428-0.005-0.449c0.002-0.082,0.01-0.788-0.21-1.104
					c-0.075-0.105-0.169-0.163-0.284-0.163h-0.004l-1.377-0.021c0,0-0.022-0.006-0.057-0.006c-0.274,0-0.585,0.204-0.638,0.77
					c-0.02,0.196-0.032,0.565-0.038,0.982C99.52,51.142,99.526,51.133,99.542,51.133z"/>
			</g>
			<g>
				<path style="fill:#A6A7AA;" d="M108.219,54.821c-0.102,0-0.17-0.012-0.17-0.012l-1.85,0.006l-0.037-0.013
					c-0.786-0.258-0.951-1.103-0.93-1.518c0-0.11-0.03-3.077,0.073-3.841c0.083-0.649,0.583-0.88,1.022-0.88
					c0.059,0,0.095,0.005,0.095,0.005l2.214,0.023h0.002c0.191,0,0.34,0.065,0.459,0.187c0.354,0.363,0.34,1.176,0.337,1.268
					c0.003,0.106,0.067,2.91-0.078,3.815C109.263,54.461,108.838,54.821,108.219,54.821z"/>
				<path style="fill:#2A4360;" d="M108.114,54.465c-0.094,0-0.15-0.011-0.15-0.011l-1.625,0.004l-0.031-0.01
					c-0.691-0.229-0.838-0.971-0.819-1.334c0-0.097-0.023-2.702,0.064-3.37c0.075-0.571,0.515-0.774,0.899-0.774
					c0.053,0,0.083,0.003,0.083,0.003l1.942,0.021h0.004c0.166,0,0.298,0.06,0.402,0.165c0.311,0.318,0.3,1.032,0.296,1.112
					c0.004,0.093,0.06,2.555-0.066,3.351C109.029,54.147,108.655,54.465,108.114,54.465z"/>
				<path style="fill:#436389;" d="M105.99,51.133h2.576c0-0.256-0.005-0.428-0.005-0.449c0.003-0.082,0.012-0.788-0.211-1.104
					c-0.072-0.105-0.165-0.163-0.283-0.163c0,0,0,0-0.004,0l-1.375-0.021c0,0-0.023-0.006-0.058-0.006
					c-0.274,0-0.586,0.204-0.64,0.77c-0.019,0.196-0.029,0.565-0.036,0.982C105.967,51.142,105.976,51.133,105.99,51.133z"/>
			</g>
			<g>
				<path style="fill:#A6A7AA;" d="M114.67,54.821c-0.105,0-0.174-0.012-0.174-0.012l-1.849,0.006l-0.038-0.013
					c-0.785-0.258-0.951-1.103-0.931-1.518c0-0.11-0.028-3.077,0.073-3.841c0.083-0.649,0.585-0.88,1.025-0.88
					c0.06,0,0.094,0.005,0.094,0.005l2.213,0.023c0.002,0,0.002,0,0.002,0c0.191,0,0.341,0.065,0.459,0.187
					c0.355,0.363,0.34,1.176,0.337,1.268c0.003,0.106,0.071,2.91-0.076,3.815C115.711,54.461,115.286,54.821,114.67,54.821z"/>
				<path style="fill:#2A4360;" d="M114.561,54.465c-0.092,0-0.15-0.011-0.15-0.011l-1.625,0.004l-0.03-0.01
					c-0.691-0.229-0.839-0.971-0.817-1.334c0-0.097-0.026-2.702,0.063-3.37c0.074-0.571,0.514-0.774,0.9-0.774
					c0.051,0,0.081,0.003,0.081,0.003l1.942,0.021c0.001,0,0.004,0,0.004,0c0.169,0,0.299,0.06,0.402,0.165
					c0.313,0.318,0.299,1.032,0.298,1.112c0.001,0.093,0.06,2.555-0.065,3.351C115.476,54.147,115.102,54.465,114.561,54.465z"/>
				<path style="fill:#436389;" d="M112.438,51.133h2.578c-0.003-0.256-0.006-0.428-0.006-0.449c0-0.082,0.012-0.788-0.209-1.104
					c-0.076-0.105-0.167-0.163-0.285-0.163h-0.002l-1.379-0.021c0,0-0.021-0.006-0.057-0.006c-0.274,0-0.587,0.204-0.641,0.77
					c-0.018,0.196-0.028,0.565-0.034,0.982C112.415,51.142,112.425,51.133,112.438,51.133z"/>
			</g>
			<g>
				<path style="fill:#A6A7AA;" d="M121.117,54.821c-0.103,0-0.17-0.012-0.17-0.012l-1.85,0.006l-0.036-0.013
					c-0.786-0.258-0.953-1.103-0.932-1.518c0-0.11-0.029-3.077,0.073-3.841c0.083-0.649,0.583-0.88,1.023-0.88
					c0.06,0,0.095,0.005,0.095,0.005l2.213,0.023h0.002c0.192,0,0.343,0.065,0.46,0.187c0.353,0.363,0.34,1.176,0.337,1.268
					c0.003,0.106,0.067,2.91-0.078,3.815C122.16,54.461,121.735,54.821,121.117,54.821z"/>
				<path style="fill:#2A4360;" d="M121.012,54.465c-0.094,0-0.15-0.011-0.15-0.011l-1.626,0.004l-0.029-0.01
					c-0.694-0.229-0.841-0.971-0.819-1.334c0-0.097-0.026-2.702,0.063-3.37c0.074-0.571,0.514-0.774,0.9-0.774
					c0.053,0,0.081,0.003,0.081,0.003l1.944,0.021h0.002c0.167,0,0.299,0.06,0.403,0.165c0.312,0.318,0.299,1.032,0.295,1.112
					c0.004,0.093,0.062,2.555-0.066,3.351C121.926,54.147,121.553,54.465,121.012,54.465z"/>
				<path style="fill:#436389;" d="M118.889,51.133h2.576c-0.002-0.256-0.008-0.428-0.008-0.449
					c0.003-0.082,0.015-0.788-0.209-1.104c-0.072-0.105-0.166-0.163-0.285-0.163c0,0,0,0-0.003,0l-1.375-0.021
					c0,0-0.022-0.006-0.059-0.006c-0.273,0-0.585,0.204-0.638,0.77c-0.02,0.196-0.031,0.565-0.037,0.982
					C118.864,51.142,118.873,51.133,118.889,51.133z"/>
			</g>
			<g>
				<path style="fill:#A6A7AA;" d="M127.567,54.821c-0.105,0-0.171-0.012-0.171-0.012l-1.851,0.006l-0.036-0.013
					c-0.788-0.258-0.954-1.103-0.933-1.518c0-0.11-0.029-3.077,0.074-3.841c0.084-0.649,0.584-0.88,1.023-0.88
					c0.06,0,0.095,0.005,0.095,0.005l2.212,0.023h0.002c0.192,0,0.342,0.065,0.461,0.187c0.351,0.363,0.338,1.176,0.336,1.268
					c0.002,0.106,0.067,2.91-0.076,3.815C128.607,54.461,128.182,54.821,127.567,54.821z"/>
				<path style="fill:#2A4360;" d="M127.459,54.465c-0.091,0-0.15-0.011-0.15-0.011l-1.625,0.004l-0.03-0.01
					c-0.691-0.229-0.838-0.971-0.817-1.334c0-0.097-0.027-2.702,0.063-3.37c0.073-0.571,0.513-0.774,0.899-0.774
					c0.053,0,0.081,0.003,0.081,0.003l1.944,0.021h0.003c0.168,0,0.297,0.06,0.402,0.165c0.312,0.318,0.299,1.032,0.296,1.112
					c0.003,0.093,0.062,2.555-0.067,3.351C128.374,54.147,128.001,54.465,127.459,54.465z"/>
				<path style="fill:#436389;" d="M125.336,51.133h2.577c-0.003-0.256-0.009-0.428-0.009-0.449
					c0.005-0.082,0.015-0.788-0.208-1.104c-0.073-0.105-0.166-0.163-0.284-0.163c0,0-0.002,0-0.004,0l-1.377-0.021
					c0,0-0.021-0.006-0.057-0.006c-0.274,0-0.586,0.204-0.639,0.77c-0.017,0.196-0.027,0.565-0.036,0.982
					C125.313,51.142,125.322,51.133,125.336,51.133z"/>
			</g>
			<g>
				<path style="fill:#A6A7AA;" d="M134.017,54.821c-0.105,0-0.174-0.012-0.174-0.012l-1.85,0.006l-0.035-0.013
					c-0.789-0.258-0.954-1.103-0.932-1.518c0-0.11-0.03-3.077,0.072-3.841c0.084-0.649,0.584-0.88,1.023-0.88
					c0.059,0,0.094,0.005,0.094,0.005l2.213,0.023c0.002,0,0.002,0,0.002,0c0.193,0,0.342,0.065,0.461,0.187
					c0.354,0.363,0.34,1.176,0.336,1.268c0.004,0.106,0.07,2.91-0.076,3.815C135.058,54.461,134.632,54.821,134.017,54.821z"/>
				<path style="fill:#2A4360;" d="M133.907,54.465c-0.092,0-0.148-0.011-0.148-0.011l-1.627,0.004l-0.029-0.01
					c-0.691-0.229-0.84-0.971-0.818-1.334c-0.002-0.097-0.027-2.702,0.063-3.37c0.076-0.571,0.516-0.774,0.9-0.774
					c0.051,0,0.082,0.003,0.082,0.003l1.943,0.021h0.002c0.168,0,0.299,0.06,0.404,0.165c0.311,0.318,0.295,1.032,0.295,1.112
					c0,0.093,0.059,2.555-0.066,3.351C134.821,54.147,134.45,54.465,133.907,54.465z"/>
				<path style="fill:#436389;" d="M131.786,51.133h2.576c-0.004-0.256-0.008-0.428-0.008-0.449
					c0.004-0.082,0.014-0.788-0.209-1.104c-0.074-0.105-0.168-0.163-0.285-0.163h-0.004l-1.375-0.021c0,0-0.021-0.006-0.059-0.006
					c-0.274,0-0.584,0.204-0.637,0.77c-0.018,0.196-0.029,0.565-0.037,0.982C131.761,51.142,131.769,51.133,131.786,51.133z"/>
			</g>
			<g>
				<path style="fill:#A6A7AA;" d="M140.464,54.821c-0.105,0-0.174-0.012-0.174-0.012l-1.848,0.006l-0.037-0.013
					c-0.787-0.258-0.953-1.103-0.932-1.518c0-0.11-0.029-3.077,0.072-3.841c0.086-0.649,0.588-0.88,1.023-0.88
					c0.061,0,0.094,0.005,0.094,0.005l2.213,0.023c0.002,0,0.004,0,0.004,0c0.191,0,0.342,0.065,0.461,0.187
					c0.352,0.363,0.34,1.176,0.334,1.268c0.006,0.106,0.07,2.91-0.076,3.815C141.505,54.461,141.079,54.821,140.464,54.821z"/>
				<path style="fill:#2A4360;" d="M140.354,54.465c-0.09,0-0.148-0.011-0.148-0.011l-1.625,0.004l-0.031-0.01
					c-0.691-0.229-0.838-0.971-0.818-1.334c0-0.097-0.024-2.702,0.063-3.37c0.076-0.571,0.516-0.774,0.902-0.774
					c0.051,0,0.08,0.003,0.08,0.003l1.943,0.021h0.002c0.17,0,0.301,0.06,0.402,0.165c0.313,0.318,0.301,1.032,0.297,1.112
					c0.004,0.093,0.059,2.555-0.068,3.351C141.269,54.147,140.895,54.465,140.354,54.465z"/>
				<path style="fill:#436389;" d="M138.233,51.133h2.576c-0.002-0.256-0.006-0.428-0.006-0.449
					c0.002-0.082,0.012-0.788-0.211-1.104c-0.072-0.105-0.168-0.163-0.283-0.163h-0.002l-1.379-0.021c0,0-0.021-0.006-0.057-0.006
					c-0.275,0-0.586,0.204-0.639,0.77c-0.018,0.196-0.029,0.565-0.035,0.982C138.208,51.142,138.216,51.133,138.233,51.133z"/>
			</g>
			<g>
				<path style="fill:#A6A7AA;" d="M146.911,54.821c-0.104,0-0.17-0.012-0.17-0.012l-1.852,0.006l-0.035-0.013
					c-0.787-0.258-0.953-1.103-0.932-1.518c0-0.11-0.029-3.077,0.072-3.841c0.084-0.649,0.586-0.88,1.025-0.88
					c0.059,0,0.092,0.005,0.092,0.005l2.213,0.023h0.006c0.189,0,0.338,0.065,0.457,0.187c0.354,0.363,0.34,1.176,0.336,1.268
					c0.004,0.106,0.07,2.91-0.074,3.815C147.954,54.461,147.53,54.821,146.911,54.821z"/>
				<path style="fill:#2A4360;" d="M146.806,54.465c-0.094,0-0.152-0.011-0.152-0.011l-1.625,0.004l-0.029-0.01
					c-0.693-0.229-0.838-0.971-0.818-1.334c0-0.097-0.025-2.702,0.064-3.37c0.074-0.571,0.514-0.774,0.898-0.774
					c0.051,0,0.082,0.003,0.082,0.003l1.943,0.021h0.002c0.168,0,0.299,0.06,0.402,0.165c0.311,0.318,0.299,1.032,0.297,1.112
					c0.002,0.093,0.061,2.555-0.066,3.351C147.72,54.147,147.347,54.465,146.806,54.465z"/>
				<path style="fill:#436389;" d="M144.681,51.133h2.576c0-0.256-0.004-0.428-0.004-0.449c0.002-0.082,0.01-0.788-0.211-1.104
					c-0.072-0.105-0.168-0.163-0.285-0.163h-0.002l-1.375-0.021c0,0-0.023-0.006-0.059-0.006c-0.273,0-0.584,0.204-0.639,0.77
					c-0.02,0.196-0.029,0.565-0.039,0.982C144.657,51.142,144.665,51.133,144.681,51.133z"/>
			</g>
			<g>
				<path style="fill:#A6A7AA;" d="M153.36,54.821c-0.105,0-0.172-0.012-0.172-0.012l-1.85,0.006l-0.037-0.013
					c-0.785-0.258-0.953-1.103-0.932-1.518c0-0.11-0.029-3.077,0.072-3.841c0.084-0.649,0.586-0.88,1.025-0.88
					c0.057,0,0.096,0.005,0.096,0.005l2.211,0.023h0.004c0.189,0,0.34,0.065,0.459,0.187c0.352,0.363,0.34,1.176,0.338,1.268
					c0.002,0.106,0.066,2.91-0.076,3.815C154.401,54.461,153.976,54.821,153.36,54.821z"/>
				<path style="fill:#2A4360;" d="M153.253,54.465c-0.094,0-0.15-0.011-0.15-0.011l-1.627,0.004l-0.029-0.01
					c-0.691-0.229-0.84-0.971-0.818-1.334c0-0.097-0.027-2.702,0.064-3.37c0.074-0.571,0.514-0.774,0.898-0.774
					c0.053,0,0.082,0.003,0.082,0.003l1.943,0.021h0.002c0.168,0,0.299,0.06,0.404,0.165c0.31,0.318,0.299,1.032,0.297,1.112
					c0.002,0.093,0.059,2.555-0.068,3.351C154.167,54.147,153.794,54.465,153.253,54.465z"/>
				<path style="fill:#436389;" d="M151.13,51.133h2.578c-0.004-0.256-0.008-0.428-0.008-0.449c0.002-0.082,0.012-0.788-0.211-1.104
					c-0.072-0.105-0.164-0.163-0.283-0.163c0,0-0.002,0-0.006,0l-1.373-0.021c0,0-0.025-0.006-0.059-0.006
					c-0.273,0-0.584,0.204-0.639,0.77c-0.018,0.196-0.027,0.565-0.035,0.982C151.107,51.142,151.114,51.133,151.13,51.133z"/>
			</g>
			<g>
				<path style="fill:#A6A7AA;" d="M159.808,54.821c-0.105,0-0.172-0.012-0.172-0.012l-1.85,0.006l-0.035-0.013
					c-0.787-0.258-0.953-1.103-0.93-1.518c-0.004-0.11-0.031-3.077,0.068-3.841c0.086-0.649,0.588-0.88,1.025-0.88
					c0.059,0,0.096,0.005,0.096,0.005l2.211,0.023c0.004,0,0.004,0,0.004,0c0.191,0,0.34,0.065,0.459,0.187
					c0.355,0.363,0.34,1.176,0.336,1.268c0.004,0.106,0.07,2.91-0.074,3.815C160.851,54.461,160.423,54.821,159.808,54.821z"/>
				<path style="fill:#2A4360;" d="M159.7,54.465c-0.092,0-0.152-0.011-0.152-0.011l-1.621,0.004l-0.033-0.01
					c-0.691-0.229-0.836-0.971-0.816-1.334c-0.002-0.097-0.025-2.702,0.061-3.37c0.076-0.571,0.516-0.774,0.902-0.774
					c0.051,0,0.082,0.003,0.082,0.003l1.941,0.021c0.002,0,0.006,0,0.006,0c0.168,0,0.297,0.06,0.402,0.165
					c0.309,0.318,0.297,1.032,0.295,1.112c0.002,0.093,0.059,2.555-0.066,3.351C160.614,54.147,160.239,54.465,159.7,54.465z"/>
				<path style="fill:#436389;" d="M157.577,51.133h2.578c-0.004-0.256-0.006-0.428-0.006-0.449c0.002-0.082,0.01-0.788-0.211-1.104
					c-0.074-0.105-0.168-0.163-0.283-0.163h-0.002l-1.379-0.021c0,0-0.021-0.006-0.057-0.006c-0.275,0-0.584,0.204-0.639,0.77
					c-0.02,0.196-0.029,0.565-0.037,0.982C157.556,51.142,157.563,51.133,157.577,51.133z"/>
			</g>
			<g>
				<path style="fill:#A6A7AA;" d="M166.257,54.821c-0.106,0-0.172-0.012-0.172-0.012l-1.852,0.006l-0.033-0.013
					c-0.789-0.258-0.955-1.103-0.932-1.518c-0.004-0.11-0.031-3.077,0.072-3.841c0.084-0.649,0.586-0.88,1.021-0.88
					c0.061,0,0.094,0.005,0.094,0.005l2.215,0.023h0.004c0.189,0,0.34,0.065,0.457,0.187c0.355,0.363,0.34,1.176,0.336,1.268
					c0.004,0.106,0.07,2.91-0.074,3.815C167.298,54.461,166.872,54.821,166.257,54.821z"/>
				<path style="fill:#2A4360;" d="M166.147,54.465c-0.09,0-0.15-0.011-0.15-0.011l-1.623,0.004l-0.033-0.01
					c-0.689-0.229-0.834-0.971-0.814-1.334c-0.004-0.097-0.027-2.702,0.063-3.37c0.074-0.571,0.514-0.774,0.898-0.774
					c0.051,0,0.084,0.003,0.084,0.003l1.941,0.021c0.002,0,0.002,0,0.002,0c0.17,0,0.299,0.06,0.404,0.165
					c0.309,0.318,0.297,1.032,0.297,1.112c0,0.093,0.059,2.555-0.068,3.351C167.061,54.147,166.69,54.465,166.147,54.465z"/>
				<path style="fill:#436389;" d="M164.024,51.133h2.578c-0.002-0.256-0.006-0.428-0.006-0.449c0.002-0.082,0.01-0.788-0.211-1.104
					c-0.074-0.105-0.166-0.163-0.283-0.163h-0.002l-1.379-0.021c0,0-0.02-0.006-0.057-0.006c-0.275,0-0.584,0.204-0.639,0.77
					c-0.018,0.196-0.029,0.565-0.035,0.982C164.003,51.142,164.011,51.133,164.024,51.133z"/>
			</g>
			<g>
				<path style="fill:#A6A7AA;" d="M172.704,54.821c-0.102,0-0.168-0.012-0.168-0.012l-1.852,0.006l-0.037-0.013
					c-0.787-0.258-0.953-1.103-0.93-1.518c0-0.11-0.031-3.077,0.072-3.841c0.084-0.649,0.584-0.88,1.023-0.88
					c0.059,0,0.094,0.005,0.094,0.005l2.211,0.023h0.004c0.191,0,0.342,0.065,0.459,0.187c0.354,0.363,0.34,1.176,0.338,1.268
					c0.002,0.106,0.068,2.91-0.076,3.815C173.745,54.461,173.323,54.821,172.704,54.821z"/>
				<path style="fill:#2A4360;" d="M172.597,54.465c-0.092,0-0.148-0.011-0.148-0.011l-1.627,0.004l-0.031-0.01
					c-0.691-0.229-0.836-0.971-0.816-1.334c0-0.097-0.027-2.702,0.064-3.37c0.072-0.571,0.512-0.774,0.898-0.774
					c0.051,0,0.082,0.003,0.082,0.003l1.943,0.021h0.004c0.166,0,0.295,0.06,0.402,0.165c0.311,0.318,0.297,1.032,0.295,1.112
					c0.002,0.093,0.061,2.555-0.068,3.351C173.511,54.147,173.138,54.465,172.597,54.465z"/>
				<path style="fill:#436389;" d="M170.474,51.133h2.578c-0.002-0.256-0.006-0.428-0.006-0.449
					c0.004-0.082,0.014-0.788-0.209-1.104c-0.076-0.105-0.168-0.163-0.287-0.163h-0.002l-1.375-0.021c0,0-0.024-0.006-0.059-0.006
					c-0.273,0-0.586,0.204-0.639,0.77c-0.018,0.196-0.031,0.565-0.037,0.982C170.452,51.142,170.46,51.133,170.474,51.133z"/>
			</g>
			<g>
				<path style="fill:#A6A7AA;" d="M179.151,54.821c-0.103,0-0.168-0.012-0.168-0.012l-1.851,0.006l-0.037-0.013
					c-0.787-0.258-0.951-1.103-0.93-1.518c0-0.11-0.029-3.077,0.072-3.841c0.084-0.649,0.584-0.88,1.023-0.88
					c0.061,0,0.096,0.005,0.096,0.005l2.211,0.023h0.002c0.193,0,0.342,0.065,0.463,0.187c0.35,0.363,0.336,1.176,0.334,1.268
					c0.002,0.106,0.068,2.91-0.076,3.815C180.192,54.461,179.77,54.821,179.151,54.821z"/>
				<path style="fill:#2A4360;" d="M179.046,54.465c-0.094,0-0.15-0.011-0.15-0.011l-1.627,0.004l-0.031-0.01
					c-0.691-0.229-0.836-0.971-0.816-1.334c0-0.097-0.025-2.702,0.064-3.37c0.074-0.571,0.512-0.774,0.898-0.774
					c0.051,0,0.084,0.003,0.084,0.003l1.941,0.021h0.004c0.166,0,0.297,0.06,0.402,0.165c0.311,0.318,0.299,1.032,0.295,1.112
					c0.004,0.093,0.061,2.555-0.066,3.351C179.958,54.147,179.587,54.465,179.046,54.465z"/>
				<path style="fill:#436389;" d="M176.921,51.133h2.578c-0.002-0.256-0.006-0.428-0.006-0.449
					c0.004-0.082,0.012-0.788-0.211-1.104c-0.07-0.105-0.166-0.163-0.285-0.163c0,0,0,0-0.002,0l-1.375-0.021
					c0,0-0.023-0.006-0.059-0.006c-0.273,0-0.584,0.204-0.639,0.77c-0.018,0.196-0.029,0.565-0.037,0.982
					C176.899,51.142,176.907,51.133,176.921,51.133z"/>
			</g>
			<g>
				<path style="fill:#A6A7AA;" d="M185.601,54.821c-0.105,0-0.172-0.012-0.172-0.012l-1.848,0.006l-0.035-0.013
					c-0.791-0.258-0.955-1.103-0.932-1.518c-0.002-0.11-0.031-3.077,0.07-3.841c0.086-0.649,0.586-0.88,1.023-0.88
					c0.061,0,0.096,0.005,0.096,0.005l2.211,0.023h0.004c0.191,0,0.342,0.065,0.459,0.187c0.354,0.363,0.34,1.176,0.338,1.268
					c0.002,0.106,0.068,2.91-0.078,3.815C186.644,54.461,186.218,54.821,185.601,54.821z"/>
				<path style="fill:#2A4360;" d="M185.493,54.465c-0.09,0-0.15-0.011-0.15-0.011l-1.623,0.004l-0.033-0.01
					c-0.689-0.229-0.836-0.971-0.816-1.334c-0.002-0.097-0.023-2.702,0.063-3.37c0.074-0.571,0.516-0.774,0.9-0.774
					c0.051,0,0.084,0.003,0.084,0.003l1.939,0.021c0.002,0,0.002,0,0.002,0c0.17,0,0.303,0.06,0.404,0.165
					c0.313,0.318,0.299,1.032,0.297,1.112c0.002,0.093,0.059,2.555-0.066,3.351C186.409,54.147,186.036,54.465,185.493,54.465z"/>
				<path style="fill:#436389;" d="M183.37,51.133h2.578c-0.002-0.256-0.006-0.428-0.006-0.449c0-0.082,0.012-0.788-0.209-1.104
					c-0.076-0.105-0.166-0.163-0.285-0.163h-0.004l-1.377-0.021c0,0-0.021-0.006-0.057-0.006c-0.273,0-0.586,0.204-0.637,0.77
					c-0.02,0.196-0.033,0.565-0.039,0.982C183.349,51.142,183.354,51.133,183.37,51.133z"/>
			</g>
			<g>
				<path style="fill:#A6A7AA;" d="M192.05,54.821c-0.107,0-0.174-0.012-0.174-0.012l-1.848,0.006l-0.037-0.013
					c-0.787-0.258-0.953-1.103-0.93-1.518c-0.002-0.11-0.031-3.077,0.07-3.841c0.086-0.649,0.586-0.88,1.025-0.88
					c0.059,0,0.094,0.005,0.094,0.005l2.211,0.023c0.004,0,0.004,0,0.004,0c0.191,0,0.342,0.065,0.459,0.187
					c0.355,0.363,0.34,1.176,0.338,1.268c0.002,0.106,0.068,2.91-0.076,3.815C193.093,54.461,192.667,54.821,192.05,54.821z"/>
				<path style="fill:#2A4360;" d="M191.94,54.465c-0.092,0-0.148-0.011-0.148-0.011l-1.625,0.004l-0.031-0.01
					c-0.691-0.229-0.838-0.971-0.816-1.334c-0.002-0.097-0.025-2.702,0.063-3.37c0.072-0.571,0.514-0.774,0.898-0.774
					c0.051,0,0.084,0.003,0.084,0.003l1.941,0.021h0.002c0.168,0,0.301,0.06,0.402,0.165c0.314,0.318,0.299,1.032,0.299,1.112
					c0,0.093,0.059,2.555-0.066,3.351C192.856,54.147,192.483,54.465,191.94,54.465z"/>
				<path style="fill:#436389;" d="M189.821,51.133h2.574c-0.002-0.256-0.006-0.428-0.006-0.449
					c0.002-0.082,0.012-0.788-0.209-1.104c-0.076-0.105-0.166-0.163-0.285-0.163h-0.004l-1.377-0.021c0,0-0.021-0.006-0.057-0.006
					c-0.273,0-0.584,0.204-0.637,0.77c-0.02,0.196-0.031,0.565-0.037,0.982C189.796,51.142,189.804,51.133,189.821,51.133z"/>
			</g>
		</g>
		<g>
			<path style="fill:#1568B3;" d="M233.558,56.932c-5.498,2.617-11.184,4.859-16.893,6.976c-11.756,4.363-23.957,6.644-36.295,8.704
				c-12.51,2.091-24.953,4.537-37.469,6.579c-2.428,0.398-4.853,0.775-7.283,1.155c44.125-4.032,76.846-10.43,81.49-11.942
				c8.662-2.817,12.379-5.604,12.379-5.604s7.412-4.57,8.063-5.072c1.527-1.18,2.502-3.179,2.787-4.897
				C238.3,54.5,235.923,55.808,233.558,56.932z"/>
		</g>
		<path style="fill:#EFEFF0;" d="M35.643,43.031c0,0,7.555-4.837,18.43-5.54c10.878-0.704,96.274,3.424,96.274,3.424l-95.264-1.309
			c0,0-4.433-0.503-6.549,3.122L35.643,43.031z"/>
		<path style="opacity:0.5;fill:#FFFFFF;" d="M21.801,73.597c0.643-1.519,1.034-3.113,1.219-4.734
			c-0.138-5.115-1.332-10.644-5.702-11.634c0,0-8.763,2.518-10.676,8.358c0,0-1.064,4.179,12.835,11.114
			C20.415,75.846,21.253,74.891,21.801,73.597z"/>
		<path style="fill:#EFEFF0;" d="M219.063,55.004c-4.199,0.574-8.709,0.686-12.629,2.475c-3.629,1.658-5.988,4.939-9.598,6.554
			c-3.574,1.6-7.857,1.901-11.695,2.447c-5.215,0.742-10.428,1.477-15.641,2.209c-5.682,0.802-11.352,1.563-16.984,2.645
			c-4.656,0.896-9.594,1.755-14.172,0.039c-2.385-0.893-4.529-2.368-6.943-3.18c-2.729-0.916-5.734-1.088-8.595-1.24
			c-5.921-0.317-11.856-0.069-17.76,0.454c-2.779,0.248-5.614,0.41-8.373,0.843c-2.482,0.394-5.431,1.125-6.745,3.515
			c-1.373,2.5-0.116,5.175-3.468,6.137c-9.834,2.823-20.115,1.317-30.116,0.372c-10.59-0.999-21.225-2.289-31.594-4.703
			c-5.354-1.247-11.113-2.659-15.824-5.612c-1.07-0.675-2.117-1.494-2.925-2.443c-0.011,0.115-0.02,0.23-0.023,0.347
			C5.96,71.533,22.926,82.772,46.649,83.454c83.19,2.396,163.008-12.624,170.459-15.051c8.662-2.817,12.379-5.604,12.379-5.604
			s7.412-4.57,8.063-5.072c1.988-1.538,3.059-4.478,2.859-6.359C233.313,52.681,226.226,54.027,219.063,55.004z"/>
		<g>
			<g>
				<path style="fill:#ABB4B4;" d="M123.92,75.48c0,0-14.881-2.167-23.868-1.763l0.528,22.582l-0.024,0.077l-0.504,2.418
					c0,0,10.727,0.098,23.868-2.921c1.252,0,2.793-4.239,2.793-9.872C126.713,80.371,125.172,75.48,123.92,75.48z"/>
				<path style="fill:#CDD7D6;" d="M104.778,87.035c3.308,0.1,6.599,0.029,9.901,0.328c3.982,0.359,7.969,0.676,11.915,1.283
					c0.072-0.838,0.119-1.72,0.119-2.645c0-5.631-1.541-10.521-2.793-10.521c0,0-14.881-2.167-23.868-1.763l0.306,13.053
					C101.819,86.809,103.277,86.992,104.778,87.035z"/>
				<path style="fill:#CDD7D6;" d="M113.006,96.097c-2.513,0.284-5.027,0.565-7.541,0.858c-1.689,0.198-3.379,0.113-5.065,0.166
					l-0.348,1.674c0,0,10.727,0.098,23.868-2.921c0.446,0,0.93-0.559,1.366-1.513C121.194,94.903,117.104,95.631,113.006,96.097z"/>
				<path style="fill:#E8E1D8;" d="M102.592,86.254c0,6.927-1.148,12.541-2.566,12.541c-1.417,0-2.568-5.614-2.568-12.541
					c0-6.924,1.151-12.536,2.568-12.536C101.444,73.718,102.592,79.33,102.592,86.254z"/>
				<g>
					<path style="fill:#96938F;" d="M100.196,77.961c-0.146-0.348-0.306-0.549-0.471-0.549c-0.752,0-1.361,3.881-1.361,8.667
						c0,4.787,0.609,8.664,1.361,8.664c0.193,0,0.379-0.265,0.547-0.736c-0.519-1.226-0.889-4.391-0.889-8.116
						C99.383,82.347,99.719,79.304,100.196,77.961z"/>
					<path style="fill:#96938F;" d="M100.196,77.961c-0.477,1.343-0.813,4.386-0.813,7.93c0,3.726,0.37,6.891,0.889,8.116
						c0.479-1.344,0.811-4.385,0.811-7.928C101.083,82.353,100.715,79.186,100.196,77.961z"/>
				</g>
			</g>
			<g>
				<path style="fill:#ABB4B4;" d="M132.54,84.547c0,0-12.571-1.832-20.17-1.49l0.449,19.082l-0.021,0.065l-0.429,2.04
					c0,0,9.066,0.086,20.17-2.464c1.059,0,2.361-3.585,2.361-8.344C134.901,88.679,133.599,84.547,132.54,84.547z"/>
				<path style="fill:#CDD7D6;" d="M116.368,94.312c2.795,0.081,5.576,0.022,8.365,0.275c3.366,0.305,6.733,0.572,10.069,1.083
					c0.063-0.706,0.1-1.451,0.1-2.233c0-4.758-1.303-8.89-2.361-8.89c0,0-12.571-1.832-20.17-1.49l0.261,11.031
					C113.868,94.118,115.098,94.274,116.368,94.312z"/>
				<path style="fill:#CDD7D6;" d="M123.32,101.967c-2.126,0.24-4.249,0.478-6.372,0.725c-1.426,0.167-2.854,0.098-4.281,0.143
					l-0.296,1.41c0,0,9.066,0.086,20.17-2.464c0.379,0,0.787-0.474,1.156-1.278C130.237,100.959,126.782,101.575,123.32,101.967z"/>
				<path style="fill:#E8E1D8;" d="M114.521,93.65c0,5.854-0.971,10.594-2.171,10.594c-1.196,0-2.169-4.74-2.169-10.594
					c0-5.85,0.973-10.594,2.169-10.594C113.55,83.057,114.521,87.801,114.521,93.65z"/>
				<g>
					<path style="fill:#96938F;" d="M112.495,86.642c-0.124-0.294-0.258-0.462-0.399-0.462c-0.634,0-1.147,3.277-1.147,7.322
						c0,4.043,0.514,7.321,1.147,7.321c0.165,0,0.323-0.225,0.465-0.621c-0.438-1.036-0.751-3.709-0.751-6.859
						C111.809,90.347,112.091,87.776,112.495,86.642z"/>
					<path style="fill:#96938F;" d="M112.495,86.642c-0.403,1.135-0.686,3.705-0.686,6.701c0,3.15,0.313,5.823,0.751,6.859
						c0.403-1.134,0.684-3.707,0.684-6.7C113.244,90.352,112.932,87.677,112.495,86.642z"/>
				</g>
			</g>
			<g>
				<path style="fill:#CDD7D6;" d="M128.175,67.298H97.026c0,0-8.053,0.648-4.24,4.553c3.814,3.899,40.897,23.412,40.897,23.412
					s3.604,1.948,8.689,2.112c0,0,23.094,1.624,17.799-2.928c-5.295-4.552-23.945-23.738-23.945-23.738
					S131.987,67.133,128.175,67.298z"/>
				<path style="fill:#DADBDC;" d="M128.175,67.298H97.026c0,0-8.053,0.648-4.24,4.553c3.814,3.899,40.897,23.412,40.897,23.412
					s3.604,1.948,8.689,2.112c0,0,23.094,1.624,17.799-2.928c-5.295-4.552-23.945-23.738-23.945-23.738
					S131.987,67.133,128.175,67.298z"/>
				<path style="fill:#BCBEBF;" d="M160.171,94.447c-5.295-4.552-23.945-23.738-23.945-23.738s-4.238-3.576-8.05-3.411h-3.665
					c4.003,1.458,7.254,4.03,10.631,7.009c4.871,4.298,9.598,8.764,14.52,13.006c1.996,1.724,4.021,3.397,5.824,5.33
					c1.012,1.076,2.176,2.21,2.07,3.785c-0.023,0.326-0.115,0.621-0.258,0.889C160.315,96.913,162.067,96.078,160.171,94.447z"/>
				<path style="opacity:0.6;fill:#FFFFFF;" d="M101.799,68.204c0,0-9.469-0.304-6.143,2.718
					c3.322,3.021,34.239,20.746,34.239,20.746s6.849,4.732,12.488,4.229c0,0-6.848-2.115-10.371-5.037
					c-3.526-2.919-29.006-18.73-29.006-18.73S97.973,69.41,101.799,68.204z"/>
			</g>
		</g>
		<g>
			<g>
				<path style="fill:#043D70;" d="M227.931,55.925l-19.986,2.208c0,0-2.279,0.392-3.467,1.965c-0.795,1.057-1.23,3.185,0.344,4.076
					c2.834,1.609,29.262,7.432,29.262,7.432s5.439,0.905,9.293-0.529c0,0,11.088-1.83,7.316-3.749
					c-3.777-1.919-17.328-10.378-17.328-10.378S230.354,55.449,227.931,55.925z"/>
				<path style="fill:#327FC2;" d="M227.931,55.925l-19.986,2.208c0,0-6.145,1.609-2.221,3.836
					c2.834,1.607,28.119,8.483,28.119,8.483s2.469,0.688,5.73,0.257c0,0,14.891-1.463,11.119-3.382
					c-3.777-1.919-17.328-10.378-17.328-10.378S230.354,55.449,227.931,55.925z"/>
			</g>
			<path style="opacity:0.7;fill:#EFEFF0;" d="M221.622,57.177l-11.631,1.438c0,0-4.229,0.679-3.248,2.341l26.209,8.307
				l-21.754-8.383c0,0-1.813-0.604,0.076-1.36C213.163,58.762,221.622,57.177,221.622,57.177z"/>
		</g>
	</g>
	<path style="fill:#EFEFF0;" d="M88.401,57.427c0,0,83.872-2.076,111.137-4.153C199.538,53.273,140.593,62.881,88.401,57.427z"/>
</g>
</svg>
